<?xml version="1.0" standalone="no"?><!DOCTYPE svg PUBLIC "-//W3C//DTD SVG 1.1//EN" "http://www.w3.org/Graphics/SVG/1.1/DTD/svg11.dtd"><svg t="1547616800546" class="icon" style="" viewBox="0 0 1024 1024" version="1.1" xmlns="http://www.w3.org/2000/svg" p-id="2547" xmlns:xlink="http://www.w3.org/1999/xlink" width="200" height="200"><defs><style type="text/css"></style></defs><path d="M1003.054545 381.672727l-53.527272-46.545454c-20.945455-18.618182-55.854545-16.290909-74.472728 4.654545L437.527273 833.163636l-51.2 188.509091 181.527272-72.145454 439.854546-495.709091c9.309091-11.636364 13.963636-23.272727 13.963636-37.236364 0-13.963636-6.981818-25.6-18.618182-34.909091z m0 0" p-id="2548"></path><path d="M619.054545 1021.672727l-4.654545 2.327273H721.454545c69.818182 0 128-58.181818 128-128v-134.981818l-218.763636 246.690909-11.636364 13.963636z m0 0M723.781818 0H128C58.181818 0 0 58.181818 0 128v765.672727c0 69.818182 58.181818 128 128 128h172.218182l6.981818-20.945454 51.2-188.509091 4.654545-18.618182 13.963637-13.963636L814.545455 281.6c11.636364-11.636364 23.272727-20.945455 37.236363-27.927273V128c0-69.818182-58.181818-128-128-128zM404.945455 500.363636H183.854545c-25.6 0-46.545455-20.945455-46.545454-46.545454s20.945455-46.545455 46.545454-46.545455h221.09091c25.6 0 46.545455 20.945455 46.545454 46.545455s-20.945455 46.545455-46.545454 46.545454z m209.454545-223.418181H183.854545c-25.6 0-46.545455-20.945455-46.545454-46.545455s20.945455-46.545455 46.545454-46.545455h430.545455c25.6 0 46.545455 20.945455 46.545455 46.545455s-20.945455 46.545455-46.545455 46.545455z" p-id="2549"></path></svg>