<?xml version="1.0" standalone="no"?><!DOCTYPE svg PUBLIC "-//W3C//DTD SVG 1.1//EN" "http://www.w3.org/Graphics/SVG/1.1/DTD/svg11.dtd"><svg t="1546658191368" class="icon" style="" viewBox="0 0 1027 1024" version="1.1" xmlns="http://www.w3.org/2000/svg" p-id="3441" xmlns:xlink="http://www.w3.org/1999/xlink" width="200.5859375" height="200"><defs><style type="text/css"></style></defs><path d="M983.838803 313.362669A511.938806 511.938806 0 1 0 1023.96018 512.025787a508.619448 508.619448 0 0 0-40.121377-198.663118z m-58.751651 372.475902A448.143324 448.143324 0 1 1 960.164699 512.025787a445.132975 445.132975 0 0 1-35.077547 173.812784z" p-id="3442"></path><path d="M577.391807 384.434824H431.110761l73.135539-73.13554a31.897741 31.897741 0 0 0-45.105399-45.105399l-127.590964 127.590964q-0.55821 0.55821-1.086517 1.146325l-0.478466 0.548242-0.538275 0.627987c-0.199361 0.239233-0.388754 0.488434-0.578146 0.727667l-0.378786 0.488434c-0.199361 0.269137-0.388754 0.548242-0.588114 0.81738l-0.30901 0.448562c-0.189393 0.289073-0.368818 0.578147-0.55821 0.86722l-0.279105 0.448562c-0.169457 0.289073-0.338913 0.578147-0.498403 0.86722l-0.279105 0.498402c-0.149521 0.269137-0.289073 0.548242-0.418658 0.827348l-0.289073 0.588114c-0.119617 0.249201-0.229265 0.50837-0.338913 0.757572s-0.199361 0.45853-0.299042 0.687795-0.179425 0.448562-0.269137 0.677827-0.209329 0.528306-0.299041 0.807411-0.139553 0.398722-0.199361 0.598083-0.199361 0.598083-0.289073 0.897124-0.09968 0.35885-0.149521 0.528306-0.179425 0.647923-0.269137 0.996804c0 0.169457-0.079744 0.328945-0.119617 0.498403-0.079744 0.338913-0.159489 0.677827-0.219297 0.996804 0 0.169457-0.059808 0.338913-0.089712 0.50837-0.059808 0.338913-0.119617 0.677827-0.169457 0.996805s0 0.388754-0.069776 0.578146-0.079744 0.637955-0.109649 0.996805 0 0.518338-0.059808 0.777507 0 0.518338-0.059808 0.777508v3.149901c0 0.259169 0 0.518338 0.059808 0.777508s0 0.518338 0.059808 0.777507 0.069776 0.637955 0.109649 0.996805 0 0.388754 0.069776 0.578146 0.109648 0.677827 0.169457 0.996805c0 0.169457 0.059808 0.338913 0.089712 0.50837 0.069776 0.338913 0.149521 0.677827 0.219297 0.996804 0 0.169457 0.069776 0.328945 0.119617 0.498403 0.079744 0.328945 0.169457 0.657891 0.269137 0.996804s0.09968 0.35885 0.149521 0.528306 0.189393 0.598083 0.289073 0.897124 0.129585 0.398722 0.199361 0.598083 0.199361 0.538274 0.299041 0.807411 0.169457 0.448562 0.269137 0.677827l0.299042 0.687796c0.09968 0.229265 0.229265 0.50837 0.338913 0.757571l0.289073 0.588114c0.139553 0.279105 0.279105 0.548242 0.418658 0.827348l0.279105 0.498402c0.159489 0.289073 0.328945 0.578147 0.498403 0.86722l0.279105 0.448562c0.179425 0.289073 0.35885 0.578147 0.55821 0.86722l0.30901 0.448562c0.189393 0.279105 0.378786 0.548242 0.588114 0.81738l0.378786 0.488434c0.189393 0.249201 0.378786 0.488434 0.578146 0.727667l0.538275 0.627987 0.478466 0.548242q0.528306 0.588115 1.086517 1.146325l127.590964 127.590964a31.897741 31.897741 0 0 0 45.105399-45.115367L431.120729 448.230305H577.391807a127.590964 127.590964 0 0 1 0 255.181928H417.903102a31.897741 31.897741 0 0 0 0 63.795482h159.488705c105.531682 0 191.386446-85.854763 191.386446-191.386446s-85.854763-191.386446-191.386446-191.386445z" p-id="3443"></path></svg>