<?xml version="1.0" standalone="no"?><!DOCTYPE svg PUBLIC "-//W3C//DTD SVG 1.1//EN" "http://www.w3.org/Graphics/SVG/1.1/DTD/svg11.dtd"><svg t="1550130860138" class="icon" style="" viewBox="0 0 1024 1024" version="1.1" xmlns="http://www.w3.org/2000/svg" p-id="7492" xmlns:xlink="http://www.w3.org/1999/xlink" width="200" height="200"><defs><style type="text/css"></style></defs><path d="M614.36 726.65l-43.49 17.72-1.11 0.56 0.17 0.19c0.56 0.37 28.57 19.42 39.2 45.73 10.82 26.5 3.92 61.4 3.92 61.4l44.61-18.1 0.18-0.19c-0.18-0.93 6.53-34.72-4.29-61.4-10.84-27.07-39.19-45.91-39.19-45.91z m218-83.41h-0.08a57.1 57.1 0 0 0-22 4.41l0.38-0.14-178.2 70.56c0.92 3.17 29.67 16.79 40.3 43.29 11 27.06 5.8 64.2 5.8 64.2l31.35-12.69 33.77 83.42 14.19-40.5 39 11.77-31.17-77.08 88.08-35.65a58 58 0 0 0 31.78-75.6 57.25 57.25 0 0 0-53.16-35.99z m126-360.67a18.77 18.77 0 0 0-10.47-9.9L525.07 74.48a0.61 0.61 0 0 0-0.25-0.06c-0.21 0-0.42 0.11-0.65 0.11a0.47 0.47 0 0 1-0.22 0 17.19 17.19 0 0 0-8.64-2.3 17.49 17.49 0 0 0-6.41 1.22L74.56 271.56a18.36 18.36 0 0 0 1.49 33.79l19.61 9.17v255.67a29.92 29.92 0 1 0 59.84 0v-227.7l41.5 19.4v0.37l36.21 17v-0.38l266 124.49a0.49 0.49 0 0 0 0.21 0c0.21 0 0.43-0.1 0.66-0.1a0.47 0.47 0 0 1 0.24 0.06 17.14 17.14 0 0 0 8.59 2.27 17.58 17.58 0 0 0 6.33-1.17L754.42 395.3l126.36-58.61 0.37 0.76 68.27-31.18a17.84 17.84 0 0 0 8.99-23.7z m-229 58.35l-220.8 100.77-250-117-1.72-0.81v-0.06l-34.52-16.13-40.82-19.12 334.09-152.42 325.93 152.76z m-186.8 413.9l-212 85.67a58 58 0 0 0-36.09 53.63 57.62 57.62 0 0 0 57.76 57.7h0.06a57.73 57.73 0 0 0 21.95-4.34l212.36-82.54c0.19-0.93 6.53-34.9-3.91-61.21-10.82-26.51-40.13-48.91-40.13-48.91z m287.19-178.33l1.52-177.29-305.62 154.22a51.77 51.77 0 0 1-47-0.21L194 406.31v341.07a71.61 71.61 0 0 0 20 49.82l0.59 0.6a71.23 71.23 0 0 0 51 21.37 72.39 72.39 0 0 0 27.2-5.31L811.06 604a29.93 29.93 0 0 0 18.69-27.51zM770.08 556L270.31 758.38a12.74 12.74 0 0 1-4.74 0.93 11.45 11.45 0 0 1-8.22-3.33l-0.38-0.39a11.85 11.85 0 0 1-3.15-8.21V504.56l220.81 114a59.9 59.9 0 0 0 54.41 0.25l241.54-121.93z m-644.51 64.38a29.93 29.93 0 1 0 29.93 29.93 29.92 29.92 0 0 0-29.93-29.93z" p-id="7493"></path></svg>