<?xml version="1.0" standalone="no"?><!DOCTYPE svg PUBLIC "-//W3C//DTD SVG 1.1//EN" "http://www.w3.org/Graphics/SVG/1.1/DTD/svg11.dtd"><svg t="1550130287940" class="icon" style="" viewBox="0 0 1024 1024" version="1.1" xmlns="http://www.w3.org/2000/svg" p-id="3143" xmlns:xlink="http://www.w3.org/1999/xlink" width="200" height="200"><defs><style type="text/css"></style></defs><path d="M512 0C229.888 0 0 229.888 0 512s229.888 512 512 512 512-229.888 512-512S794.112 0 512 0z m356.352 182.784l11.264 13.312c68.608 79.36 108.544 176.64 116.224 281.088l1.536 21.504H691.2l-0.512-19.456c-1.536-65.536-7.68-129.024-17.92-188.416l-3.072-17.408 17.408-5.12c59.904-17.408 116.224-42.496 166.4-75.776l14.848-9.728z m-247.808-143.36c76.8 17.408 148.992 54.272 209.408 106.496l20.48 17.92-23.04 14.336c-43.52 27.136-91.648 48.128-142.336 62.976l-19.968 5.632-5.12-19.968c-15.36-63.488-36.352-117.76-60.928-157.696l-24.576-40.448 46.08 10.752z m-261.12 459.264l0.512-20.48c1.536-63.488 7.168-123.904 16.896-179.2l3.584-19.456 19.456 3.584c75.264 13.312 151.04 13.312 224.768 0l19.456-3.584 3.584 19.456c9.728 54.784 15.36 115.2 16.896 179.2l0.512 20.48H359.424z m305.152 26.624l-0.512 20.48c-1.536 64-7.168 124.416-16.896 179.2l-3.584 19.456-19.456-3.584c-73.216-12.8-148.992-13.312-224.768 0l-19.456 3.584-3.584-19.456c-9.728-54.784-15.36-115.2-16.896-179.2l-0.512-20.48h305.664zM512 26.624c41.984 0 91.136 82.432 121.344 205.824l5.12 20.48-20.992 3.584c-35.328 6.144-71.168 9.216-105.472 9.216-35.328 0-71.168-3.072-105.984-9.216l-20.992-3.584 5.12-20.48c30.72-122.88 79.872-205.824 121.856-205.824zM194.56 145.92C254.464 94.208 326.656 57.344 403.456 39.424l46.08-10.752-24.576 40.448c-24.064 38.912-45.056 93.696-60.928 157.184l-5.12 19.968-19.968-5.632c-50.176-14.848-98.304-35.84-142.336-62.976L174.08 163.84l20.48-17.92zM28.672 477.184C35.84 372.736 76.288 275.456 144.384 196.096l11.264-13.312 14.336 9.728C220.16 225.28 275.968 250.88 336.896 267.776l17.408 5.12-3.072 17.408c-10.24 59.392-16.384 122.88-17.92 188.928l-0.512 19.456H27.136l1.536-21.504z m126.976 364.032l-11.264-13.312C75.776 748.032 35.84 651.264 28.672 546.816l-1.536-20.992H332.8l0.512 19.456c1.536 65.536 7.68 129.024 17.92 188.928l3.072 17.408-17.408 5.12C276.48 773.12 220.16 798.72 170.496 831.488l-14.848 9.728z m247.808 143.36c-76.8-17.408-148.992-54.272-208.896-106.496l-20.48-17.408 23.04-14.336c43.52-27.136 91.648-48.128 142.336-62.976l19.968-5.632 5.12 19.968c15.872 64 36.864 118.272 60.928 157.184l24.576 40.448-46.592-10.752z m108.544 12.8c-41.984 0-91.136-82.432-121.344-205.824l-5.12-20.48 20.992-3.584c70.656-12.288 140.288-12.288 211.456 0l20.992 3.584-5.12 20.48c-30.72 122.88-79.872 205.824-121.856 205.824z m317.44-119.296c-59.904 52.224-132.096 89.088-209.408 106.496l-46.08 10.752 24.576-40.448c24.064-39.424 45.056-94.208 60.928-157.696l5.12-19.968 19.968 5.632c50.688 14.848 98.816 35.84 142.336 62.976l23.04 14.336-20.48 17.92z m165.888-331.264c-7.68 104.448-47.616 201.728-116.224 281.088l-11.264 13.312-14.336-9.728c-50.176-33.28-106.496-58.368-166.4-75.776l-17.408-5.12 3.072-17.408c10.24-59.392 16.384-122.88 17.92-188.416l0.512-19.456h305.664l-1.536 21.504z" p-id="3144"></path></svg>