<?xml version="1.0" standalone="no"?><!DOCTYPE svg PUBLIC "-//W3C//DTD SVG 1.1//EN" "http://www.w3.org/Graphics/SVG/1.1/DTD/svg11.dtd"><svg t="1546948333669" class="icon" style="" viewBox="0 0 1024 1024" version="1.1" xmlns="http://www.w3.org/2000/svg" p-id="1709" xmlns:xlink="http://www.w3.org/1999/xlink" width="200" height="200"><defs><style type="text/css"></style></defs><path d="M800.97167929 978.23170333H313.72491207c-1.28069632 0-2.44496611-0.11642653-3.60923591-0.23285419h-76.60892957c-1.62997703 0-3.14352754-0.11642653-4.7735057-0.34928071-52.27569835-7.45132487-72.65041408-59.14488832-76.49250304-88.60090482-0.11642653-1.28069632-0.23285419-2.6778203-0.23285305-3.95851662l-3.2599552-280.00680392-79.51960405-37.25662321c-21.18970368-9.89628985-37.95518464-25.96320939-47.2693396-45.05722767-13.50552576-27.70961294-12.34125597-59.26131485 3.25995407-88.95018666 5.70492018-10.82770546 13.50552576-20.49114226 23.28538908-28.99030926l109.3249024-94.30582614V183.03566507c0-37.72233045 20.60756992-72.30113337 52.62497906-88.13519758 26.19606243-12.92339086 54.72066446-12.45768363 80.45101966 1.39712284 22.12111929 11.87554873 38.30446535 32.25026446 46.10507093 56.46706916l82.19742322-71.36971776c29.45601763-29.22316345 62.17198933-44.00938553 97.44935368-44.00938554h1.39712284c53.78924885 0.5821349 92.21014073 35.85949923 100.47645468 44.12581206 17.46404238 15.25192931 259.51566165 225.86827435 341.94593906 296.42300416 43.19439645 36.90734137 62.52127005 74.16396459 57.39848363 110.72202524-6.63633579 47.85147449-51.80999111 69.85616725-57.04920292 72.30113337l-74.51324529 36.441633-0.81498909 58.91203527c0 1.16426979-0.11642653 2.32853845-0.23285305 3.49280825l-2.6778203 225.51899363c0 1.28069632-0.11642653 2.6778203-0.23285419 3.95851549-3.84208896 29.33958997-24.33323122 81.14958109-76.49250304 88.60090595-1.62997703 0.23285419-3.25995406 0.34928071-4.88993109 0.34928072z m-76.6089307-67.06192043h73.46540316c11.40984035-3.25995406 16.53262677-23.75109746 17.69689543-29.33958997l3.49280825-298.28583538c0-1.62997703 0.11642653-3.25995406 0.46570838-4.8899311v-2.79424682c0.23285419-12.69053667 7.45132487-24.10037817 18.74473756-29.68887069l93.72369124-45.87221675c4.07494315-1.97925774 18.04617614-10.82770546 19.3268736-21.07327715 0.5821349-4.42422386-0.23285419-21.07327715-34.57880292-50.41286713C831.35911139 355.81325198 575.91839289 133.43778589 573.35700025 131.22567395c-0.81498909-0.69856142-1.51355051-1.39712285-2.21211193-2.21211192-0.11642653-0.11642653-24.44965888-24.56608541-54.37138375-24.68251193h-0.23285419c-17.34761472 0-33.99666802 8.26631282-50.76214784 25.1482203-0.5821349 0.5821349-1.16426979 1.16426979-1.74640355 1.62997703L330.49039189 247.07048562c-9.89628985 8.61559353-23.98395051 10.59485241-35.85949923 5.2392118-11.99197525-5.47206599-19.55972665-17.34761472-19.55972665-30.50385977v-36.32520647c0-13.15624505-6.28705507-24.91536611-15.95049188-30.15457905-6.63633579-3.60923477-11.87554873-3.72566243-18.7447387-0.34928072-9.19772843 4.54065038-15.36835698 15.83406421-15.36835584 28.05889366v143.08871623c0 9.77986333-4.19136967 18.97759175-11.64269454 25.38107449l-120.96759694 104.3185425c-3.37638173 2.91067335-6.05420089 6.17062855-7.80060558 9.54701028-8.26631282 15.71763769-3.72566243 25.03179378-2.21211194 28.17532018 2.6778203 5.35563947 8.14988629 10.2455717 15.48478351 13.73837994l97.91506204 45.87221675c1.62997703 0.69856142 3.14352754 1.62997703 4.65707805 2.56139264 4.07494315 2.56139264 7.33489721 5.93777437 9.89628984 9.89628985 2.6778203 3.95851662 4.42422386 8.61559353 5.12278528 13.62195342 0.23285419 1.62997703 0.34928071 3.37638173 0.34928072 5.12278528l3.49280824 297.58727282c1.16426979 5.35563947 6.17062855 25.96320939 17.69689658 29.33958997h484.10323968c0.81498909-0.34928071 2.09568541-0.23285419 3.25995406-0.11642652z" p-id="1710"></path><path d="M617.13353159 978.23170333H413.85208491c-18.51188451 0-33.53096078-15.01907627-33.53096078-33.53095965V688.44503609c0-43.31082411 35.27736434-78.58818845 78.58818844-78.58818844h113.16699136c43.31082411 0 78.58818845 35.27736434 78.58818844 78.58818844v256.37213412c0 18.39545685-15.01907627 33.41453312-33.53096078 33.41453312z m-169.7504859-67.06192043h136.21952626V688.44503609c0-6.4034816-5.12278528-11.52626802-11.52626802-11.52626802h-113.16699136c-6.4034816 0-11.52626802 5.12278528-11.52626688 11.52626802v222.72474681z" p-id="1711"></path></svg>