<?xml version="1.0" standalone="no"?><!DOCTYPE svg PUBLIC "-//W3C//DTD SVG 1.1//EN" "http://www.w3.org/Graphics/SVG/1.1/DTD/svg11.dtd"><svg t="1546945651622" class="icon" style="" viewBox="0 0 1024 1024" version="1.1" xmlns="http://www.w3.org/2000/svg" p-id="1618" xmlns:xlink="http://www.w3.org/1999/xlink" width="200" height="200"><defs><style type="text/css"></style></defs><path d="M509.84426667 989.13706667c-263.7952 0-477.64693333-213.85173333-477.64693334-477.64693334S246.04906667 33.8432 509.84426667 33.8432s477.64693333 213.85173333 477.64693333 477.64693333-213.85066667 477.64693333-477.64693333 477.64693334z m0-868.44906667c-215.83573333 0-390.80213333 174.9664-390.80213334 390.80213333s174.9664 390.80213333 390.80213334 390.80213334c215.83146667 0 390.80213333-174.9664 390.80213333-390.80213334S725.67573333 120.688 509.84426667 120.688z m-43.42186667 651.33653333c-43.42293333 0-43.42293333-43.42186667-43.42293333-43.42186666l43.42293333-217.11253334s0-43.42293333-43.42293333-43.42293333c0 0-43.42293333 0-43.42293334-43.42293333h130.26773334s43.42293333 0 43.42293333 43.42293333-43.42293333 173.6896-43.42293333 217.11253333 43.42293333 43.42293333 43.42293333 43.42293334h43.42293333c-0.00106667 0-0.00106667 43.42186667-130.26773333 43.42186666z m86.8448-434.224c-23.98186667 0-43.42293333-19.44-43.42293333-43.42293333s19.44-43.42293333 43.42293333-43.42293333 43.42293333 19.44 43.42293333 43.42293333-19.44106667 43.42293333-43.42293333 43.42293333z" p-id="1619"></path></svg>