<?xml version="1.0" standalone="no"?><!DOCTYPE svg PUBLIC "-//W3C//DTD SVG 1.1//EN" "http://www.w3.org/Graphics/SVG/1.1/DTD/svg11.dtd"><svg t="1550130693579" class="icon" style="" viewBox="0 0 1024 1024" version="1.1" xmlns="http://www.w3.org/2000/svg" p-id="6573" xmlns:xlink="http://www.w3.org/1999/xlink" width="200" height="200"><defs><style type="text/css"></style></defs><path d="M951.823539 238.202564c-2.3489-3.01141-4.6978-6.022821-7.347842-8.431949a112.62675 112.62675 0 0 0-22.946947-16.80367c-123.106458-67.033996-246.09246-134.308905-369.198918-201.403129A101.243618 101.243618 0 0 0 518.722492 0h-11.44336c-28.608399 5.842136-53.181508 22.645806-78.65804 36.438066a55046.474532 55046.474532 0 0 0-334.266557 181.106223c-17.225268 9.455829-30.656158 24.512881-33.788025 47.520056-0.120456 0.782967-0.421597 1.505705-0.66251 2.228444V277.049759c1.806846 10.539936 4.818257 20.477591 11.202447 28.849312 2.228444 2.770498 4.336431 5.781908 6.926244 8.130808 6.805788 6.083049 13.671803 11.985413 21.621927 16.321844 124.009881 67.57605 247.839078 135.453241 371.969415 202.788378 10.479708 5.781908 21.260558 11.44336 33.366427 12.647924a58.421362 58.421362 0 0 0 34.63122-6.986472l376.366075-204.41454c4.215975-2.409128 8.612634-4.276203 12.587695-7.0467 11.744501-7.829667 22.766263-16.863898 28.969769-30.957299 2.650041-6.022821 3.854605-12.828608 5.781908-19.273027v-9.817198a65.22715 65.22715 0 0 0-11.503588-29.090225z" p-id="6574"></path><path d="M909.483108 479.416539a56.012234 56.012234 0 0 0-39.088107 5.781908c-23.850371 13.370662-47.520056 27.22315-71.551112 40.232443-94.317374 50.892836-188.815433 101.544759-283.193036 152.377368-2.710269 1.445477-4.818257 1.626162-7.648982 0.120456C392.363711 614.930008 276.72555 552.051759 161.207847 489.053053A86.969533 86.969533 0 0 0 100.2569 479.71768c-21.50147 4.637572-36.438066 24.573109-39.449477 49.989413-0.180685 1.325021-0.66251 2.770498-0.963651 4.095518v12.888837c1.806846 10.41948 4.818257 20.296906 10.901306 28.789084 5.781908 7.950124 12.527467 14.514998 20.658275 19.032114 127.021292 70.768145 254.102811 141.656746 381.244559 212.063522 10.238795 5.601223 20.778732 11.202447 32.643689 12.286554a58.903188 58.903188 0 0 0 33.788025-6.866016c130.695212-70.286319 261.269968-140.452182 391.724268-211.09987 17.526409-9.455829 27.464063-26.259499 31.439125-47.459829L963.327127 548.739207v-11.925185c-1.204564-4.336431-1.987531-8.974003-3.553465-13.069521-9.214916-25.53676-26.620868-39.569933-50.290554-44.267734z" p-id="6575"></path><path d="M909.543337 684.011763a56.012234 56.012234 0 0 0-39.148336 5.72168c-24.091283 13.491119-48.06211 27.524291-72.334078 40.714269-93.956005 50.591695-187.791554 100.942477-281.747559 151.594401a8.73309 8.73309 0 0 1-9.275144-0.120457c-114.97565-62.697565-229.9513-125.274674-344.92695-188.032466a95.943536 95.943536 0 0 0-55.711093-10.841078c-22.404894 1.867074-39.690389 20.236678-44.568874 45.773438L59.904 738.277379v12.888837c1.806846 10.238795 4.6978 19.995765 10.600165 28.307258 5.902364 8.431949 12.888837 15.057052 21.320785 19.754852 126.840607 70.707917 253.741442 141.415833 380.762734 211.762381 10.841078 6.022821 22.284437 11.624044 34.63122 12.888837h8.853547c10.178567-1.806846 19.754852-5.420539 28.969768-10.720622 11.985413-6.745559 24.573109-12.166098 36.618751-18.670744 115.939301-62.637337 231.818374-125.39513 347.516763-188.092695 18.429832-9.937654 29.090225-26.741325 33.185742-48.965534l0.963652-4.215974v-11.925185c-1.204564-4.336431-1.987531-8.974003-3.553465-13.069522-9.094459-25.53676-26.56064-39.569933-50.230325-44.207505z" p-id="6576"></path></svg>