<?xml version="1.0" standalone="no"?><!DOCTYPE svg PUBLIC "-//W3C//DTD SVG 1.1//EN" "http://www.w3.org/Graphics/SVG/1.1/DTD/svg11.dtd"><svg t="1550133781536" class="icon" style="" viewBox="0 0 1024 1024" version="1.1" xmlns="http://www.w3.org/2000/svg" p-id="1880" xmlns:xlink="http://www.w3.org/1999/xlink" width="200" height="200"><defs><style type="text/css"></style></defs><path d="M525.22666667 771.73333334c-1.70666668 14.18666668 9.38666666 23.78666668 25.49333335 22.07999999l95.78666664-15.78666666-105.27999999-104.32-16 98.02666667zM894.93333333 416.21333332c-6.29333332-4.80000001-12.79999999-6.29333332-15.89333334-6.29333333s-9.38666666 0-15.89333332 6.29333335L847.25333334 432l42.98666666 42.66666667 15.89333334-15.78666667c8.00000002-9.38666666 8.00000002-23.78666668 0-31.57333333L894.93333333 416.21333332z" p-id="1881"></path><path d="M936.64 395.52l-11.2-11.09333333c-12.8-12.69333333-30.29333333-18.98666667-47.78666667-18.98666667s-33.49333333 6.29333333-47.78666666 18.98666667l-48 47.36-208.85333334 208.64c-11.2 11.09333333-11.2 30.08 0 41.06666666l63.78666667 63.25333334c6.4 6.29333333 12.8 7.89333333 20.8 7.89333333s15.89333333-3.09333333 20.8-9.38666667l242.45333333-240.21333333 15.89333334-15.78666667c25.38666667-23.68 25.38666667-66.45333333-0.10666667-91.73333333zM916.69333333 467.2l-15.89333333 15.78666667L658.56 723.2l-1.28 1.28h-0.64L593.06666667 661.76c-0.10666667-0.21333333-0.10666667-0.96 0-1.17333333l208.85333333-208.64 47.14666667-46.72c8.85333333-7.68 18.34666667-11.41333333 28.58666666-11.41333334 10.88 0 21.12 3.84 27.94666667 10.77333334l11.2 11.09333333c7.04 7.04 10.98666667 16.74666667 10.88 26.98666667-0.32 9.49333333-3.84 18.02666667-10.98666667 24.53333333z" p-id="1882"></path><path d="M773.65333333 330.56c8.74666667 0 14.61333333-5.86666667 14.61333334-14.61333333V160.53333333c0-48.42666667-39.57333333-87.89333333-87.89333334-87.89333333H158.18666667c-48.42666667 0-87.89333333 39.57333333-87.89333334 87.89333333v703.36c0 48.42666667 39.57333333 87.89333333 87.89333334 87.89333334h542.18666666c48.42666667 0 87.89333333-39.57333333 87.89333334-87.89333334v-68.58666666c0-8.74666667-5.86666667-14.61333333-14.61333334-14.61333334s-14.61333333 5.86666667-14.61333333 14.61333334v68.58666666c0 32.32-26.45333333 58.56-58.56 58.56H158.29333333c-32.32 0-58.56-26.45333333-58.56-58.56V160.64c0-32.32 26.45333333-58.56 58.56-58.56h542.29333334c32.32 0 58.56 26.45333333 58.56 58.56v155.30666667c-0.10666667 8.85333333 5.76 14.61333333 14.50666666 14.61333333z" p-id="1883"></path><path d="M150.30044445 684.25955555c-9.32977778 0-15.58755555 6.25777778-15.58755556 15.58755556s6.25777778 15.58755555 15.58755556 15.58755556h296.96c9.32977778 0 15.58755555-6.25777778 15.58755555-15.58755556s-6.25777778-15.58755555-15.58755555-15.58755556h-296.96z m375.12533333-102.51377777c0-9.32977778-6.25777778-15.58755555-15.58755556-15.58755556h-359.53777777c-9.32977778 0-15.58755555 6.25777778-15.58755556 15.58755556s6.25777778 15.58755555 15.58755556 15.58755555h359.53777777c9.32977778 0 15.58755555-6.25777778 15.58755556-15.58755555zM151.552 437.93066667c0 12.74311111 14.22222222 22.18666667 25.71377778 20.59377778 23.552-1.36533333 22.18666667-24.23466667 22.18666667-25.71377778 103.87911111 41.984 181.58933333-21.27644445 178.06222222-17.74933334l34.24711111 34.24711112 28.55822222-29.2408889s-34.92977778-31.40266667-35.61244445-31.40266666c54.84088889-109.68177778 0-207.18933333-102.51377777-229.26222222 0 0 139.49155555 76.91377778 74.06933333 198.76977778L262.82666667 257.13777778l34.24711111-38.45688889-19.91111111-17.74933334c0 1.36533333-11.37777778 12.74311111-12.74311112 14.22222223 2.84444445 14.22222222-14.90488889 27.07911111-29.24088888 14.22222222L177.49333333 286.94755555l29.24088889 29.2408889 29.24088889-30.60622223 111.84355556 100.352c-89.65688889 47.67288889-171.57688889-16.384-171.57688889-16.384l-24.23466667 24.23466667s7.85066667 8.53333333 20.59377778 19.91111111c-11.71911111 2.16177778-21.04888889 12.74311111-21.04888889 24.23466667z" p-id="1884"></path></svg>