<?xml version="1.0" standalone="no"?><!DOCTYPE svg PUBLIC "-//W3C//DTD SVG 1.1//EN" "http://www.w3.org/Graphics/SVG/1.1/DTD/svg11.dtd"><svg t="1546658075610" class="icon" style="" viewBox="0 0 1024 1024" version="1.1" xmlns="http://www.w3.org/2000/svg" p-id="1495" xmlns:xlink="http://www.w3.org/1999/xlink" width="200" height="200"><defs><style type="text/css"></style></defs><path d="M803.18759936 553.61015922l0-416.10158763-291.27111111 0 0 739.24608q77.39489507-40.94439651 138.47860793-89.04573952 152.79250318-119.67081699 152.79250318-234.01553237zM928.01807587 54.28825429l0 499.32190493q0 55.92405333-21.80372366 110.84946318t-53.92676522 97.53421255-76.72913238 82.88743652-82.22167381 66.99235555-78.6432 50.34829255-58.17100174 32.20626318-27.62914589 12.98236986q-7.82271033 3.91135459-16.89372444 3.91135459t-16.89372444-3.91135459q-10.40253952-4.5771173-27.62914589-12.98236986t-58.17100174-32.20626318-78.6432-50.34829255-82.22167381-66.99235555-76.72913238-82.88743652-53.92676522-97.53421255-21.80372367-110.84946318l0-499.32190493q0-16.89372445 12.31660715-29.29355207t29.29355207-12.31660715l748.98285682 0q16.89372445 0 29.29355207 12.31660715t12.31660714 29.29355207z" p-id="1496"></path></svg>