<?xml version="1.0" standalone="no"?><!DOCTYPE svg PUBLIC "-//W3C//DTD SVG 1.1//EN" "http://www.w3.org/Graphics/SVG/1.1/DTD/svg11.dtd"><svg t="1550130545659" class="icon" style="" viewBox="0 0 1024 1024" version="1.1" xmlns="http://www.w3.org/2000/svg" p-id="5743" xmlns:xlink="http://www.w3.org/1999/xlink" width="200" height="200"><defs><style type="text/css"></style></defs><path d="M511.7952 251.2896l45.6704 66.56L634.88 340.5824l-49.152 64.1024 2.048 80.6912-75.9808-27.0336-76.1856 27.0336 2.2528-80.6912-49.152-64.1024 77.4144-22.7328 45.6704-66.56z" p-id="5744"></path><path d="M901.12 163.84h-102.4V81.92H225.28v81.92H122.88v307.2h102.4v84.3776L389.12 737.28h71.68v143.36H245.76v61.44h532.48v-61.44H542.72v-143.36H634.88l163.84-181.8624V471.04h102.4zM184.32 409.6v-184.32h40.96v184.32z m552.96 122.88l-129.6384 143.36h-191.2832L286.72 532.48V143.36h450.56v389.12z m102.4-122.88h-40.96v-184.32h40.96z" p-id="5745"></path></svg>